<svg id="_x33_0" enable-background="new 0 0 64 64" height="512" viewBox="0 0 64 64" width="512" xmlns="http://www.w3.org/2000/svg"><g><path d="m61 25.31v-.705c0-1.988-1.617-3.605-3.605-3.605-1.208 0-2.329.6-3 1.605l-.55.825-2.453-2.453c-1.276-1.275-2.978-1.977-4.874-1.977-3.135 0-5.797 2.137-6.476 5.196l-.102.46-4.58-1.309c-.811-.23-1.648-.347-2.488-.347-.74 0-1.464.095-2.164.266.191-.79.292-1.6.292-2.412 0-2.744-1.065-5.324-3-7.269v-2.585h-1c-1.764 0-3.473-.518-4.941-1.496l-1.008-.672c-1.246-.831-2.659-1.382-4.13-1.646.048-.391.079-.786.079-1.186 0-2.757-2.243-5-5-5s-5 2.243-5 5c0 .281.051.549.124.807-3.749 2.15-6.124 6.189-6.124 10.556 0 1.88.444 3.762 1.284 5.443l.505 1.007c.228.456.485.889.758 1.308-1.461.382-2.547 1.701-2.547 3.279 0 1.178.2 2.336.597 3.442l3.516 9.846c.697 1.951 2.103 3.536 3.956 4.464l7.484 3.742c.627.314 1.181.755 1.653 1.272-.708.308-1.206 1.014-1.206 1.834v10h14v-10c0-1.103-.897-2-2-2v-6.251c0-.596-.078-1.177-.192-1.749h2.308c1.497 0 2.951-.305 4.285-.87-.255.838-.401 1.716-.401 2.619v6.251c-1.103 0-2 .897-2 2v10h14v-10c0-.82-.498-1.526-1.206-1.834.472-.517 1.026-.958 1.653-1.272l7.484-3.742c1.854-.928 3.259-2.513 3.956-4.465l3.516-9.844c.397-1.107.597-2.265.597-3.443 0-1.374-.824-2.554-2-3.09zm-19.005-.68c.474-2.138 2.333-3.63 4.604-3.63 1.281 0 2.481.494 3.379 1.392l4.178 4.178 1.903-2.854c.298-.448.797-.716 1.336-.716.885 0 1.605.72 1.605 1.605v.453c-1.125.201-2.087.951-2.538 2.033l-1.084 2.602-.041.021c-.854.429-1.922.361-2.717-.169l-4.395-2.93c-.148-.494-.225-1.01-.225-1.535v-.08l-2 .08c0 1.455.427 2.863 1.233 4.072.502.752.767 1.628.767 2.534 0 .452-.075.901-.207 1.333-.062-.004-.121-.019-.184-.019-.564 0-1.126.143-1.623.414l-4.408 2.404.324-.584c.718-1.291 1.098-2.755 1.098-4.234 0-1.347-.673-2.534-1.696-3.259zm7.674 9.086c.213-.655.331-1.342.331-2.03 0-.556-.084-1.1-.219-1.63l1.73 1.154c.776.517 1.679.79 2.613.79.1 0 .2-.011.3-.018l-1.323 3.175c-.416.998-1.212 1.765-2.193 2.163.054-.304.092-.613.092-.929 0-1.092-.527-2.054-1.331-2.675zm-14.858-8.445 4.694 1.342-.095.428c-.137-.014-.27-.041-.41-.041-2.206 0-4 1.794-4 4v.382l-2.619 1.31c-.01.005-.019.011-.029.016l-3.443-4.018c-.41-.479-.907-.861-1.454-1.143 1.344-1.618 3.308-2.547 5.417-2.547.654 0 1.307.091 1.939.271zm-5.924-5.731-1.862 1.242c-.214.143-.464.218-.722.218-.719 0-1.303-.584-1.303-1.303v-.139c0-.536.321-1.011.818-1.209l2.416-.966c.315.683.535 1.406.653 2.157zm-12.418-10.402c1.237.207 2.427.66 3.473 1.358l1.008.672c1.52 1.013 3.248 1.622 5.051 1.786v1.46l.567.567c.215.215.413.441.601.674l-2.092.837c-1.263.505-2.077 1.708-2.077 3.067v.139c0 1.821 1.481 3.302 3.303 3.302.654 0 1.288-.191 1.832-.555l.794-.529c-.041.32-.099.639-.177.953l-.327 1.308c-.993.561-1.889 1.302-2.625 2.222l-.485.606c-.027 0-.054-.004-.081-.004h-.396c-1.026 0-1.974.326-2.758.872-.964-2.047-2.586-3.744-4.633-4.767l-.52-.26-2.709 1.807c-.34.227-.738.347-1.148.347-1.141 0-2.07-.929-2.07-2.103 0-.789.438-1.498 1.145-1.852l1.544-.771-1.986-1.986c-.447-.446-.703-1.064-.703-1.696 0-.714.314-1.386.863-1.843l1.703-1.42c1.35-1.124 2.341-2.576 2.903-4.191zm-3.469 27.253c0 .317.038.625.092.929-.981-.398-1.777-1.165-2.193-2.163l-2.303-5.527c1.769.883 3.749 1.37 5.82 1.37h1.751c1.326 0 2.614.247 3.846.709-.001.044-.013.085-.013.129 0 .957.281 1.885.813 2.684l.439.658-3.238-1.766c-.497-.271-1.059-.414-1.623-.414-1.87 0-3.391 1.521-3.391 3.391zm-4.7-27.924c.484.335 1.068.533 1.7.533 1.654 0 3-1.346 3-3v-1h-2v1c0 .552-.448 1-1 1s-1-.448-1-1c0-1.654 1.346-3 3-3s3 1.346 3 3c0 2.245-.989 4.355-2.714 5.792l-1.704 1.421c-1.006.839-1.582 2.07-1.582 3.379 0 1.158.47 2.292 1.288 3.11l.117.117c-.884.763-1.405 1.88-1.405 3.111 0 2.244 1.826 4.07 4.07 4.07.807 0 1.587-.236 2.258-.684l1.725-1.149c1.665.984 2.926 2.543 3.553 4.375-.038.07-.08.139-.115.211-1.389-.492-2.837-.753-4.324-.753h-1.751c-4.193 0-7.963-2.33-9.838-6.082l-.505-1.007c-.702-1.404-1.073-2.976-1.073-4.548 0-3.714 2.07-7.125 5.3-8.896zm20.7 52.533h-10v-8h10zm-8.441-10c-.751-1.227-1.824-2.25-3.112-2.895l-7.484-3.742c-1.391-.695-2.444-1.885-2.968-3.348l-3.516-9.845c-.318-.891-.479-1.822-.479-2.77 0-.772.628-1.4 1.4-1.4.566 0 1.074.338 1.292.861l3.36 8.065c.77 1.846 2.399 3.183 4.362 3.576l.726.145c.464.58 1.051 1.067 1.746 1.414l1.136.568c1.583.792 3.021 1.827 4.271 3.077l1.414-1.414c-1.402-1.402-3.015-2.564-4.79-3.452l-1.136-.568c-1.098-.548-1.781-1.653-1.781-2.881 0-.767.624-1.391 1.391-1.391.231 0 .462.059.666.17l6.296 3.434c2.25 1.227 3.647 3.582 3.647 6.145v6.251zm7.61-10c-.668-1.455-1.718-2.718-3.065-3.647l-2.627-3.94c-.312-.469-.477-1.014-.477-1.575 0-1.565 1.273-2.838 2.838-2.838h.396c.83 0 1.615.361 2.155.99l3.285 3.833c-1.202 1.012-2.113 2.331-2.623 3.86l1.896.633c.562-1.682 1.742-3.044 3.327-3.836l3.726-1.862v-1.618c0-1.103.897-2 2-2s2 .897 2 2c0 1.14-.292 2.268-.846 3.263l-1.171 2.108c-1.586 2.856-4.6 4.629-7.867 4.629zm16.831 20h-10v-8h10zm15.521-29.829-3.516 9.844c-.523 1.464-1.577 2.653-2.968 3.349l-7.484 3.742c-1.288.645-2.361 1.668-3.112 2.895h-6.441v-6.251c0-2.563 1.397-4.918 3.647-6.146l6.296-3.434c.204-.111.435-.17.666-.17.767 0 1.391.624 1.391 1.391 0 1.229-.683 2.333-1.781 2.882l-1.136.568c-1.775.888-3.388 2.05-4.79 3.452l1.414 1.414c1.25-1.25 2.688-2.285 4.271-3.077l1.136-.568c.694-.347 1.282-.834 1.746-1.414l.727-.145c1.962-.394 3.592-1.73 4.361-3.576l3.36-8.065c.217-.524.725-.862 1.292-.862.772 0 1.4.628 1.4 1.4 0 .948-.161 1.879-.479 2.771z"/><path d="m21 13h-2c0 1.103-.897 2-2 2v2c2.206 0 4-1.794 4-4z"/></g></svg>