<svg id="Layer_1" enable-background="new 0 0 512 512" height="512" viewBox="0 0 512 512" width="512" xmlns="http://www.w3.org/2000/svg"><g><path d="m245.002 5.499c-48.647 0-93.982 14.178-132.099 38.628l-18.154 399.88-.011.006c41.493 32.266 93.631 51.491 150.263 51.491 135.311 0 245.002-109.691 245.002-245.002s-109.69-245.003-245.001-245.003z" fill="#2a428c"/><path d="m458.705 44.126h-345.802c-25.936 16.636-48.517 38.036-66.539 62.951h349.389c29.312 0 53.295 23.982 53.295 53.295v222.46h9.656c29.313 0 53.295-23.983 53.295-53.295v-232.116c.001-29.312-23.982-53.294-53.294-53.295z" fill="#4fabf7"/><path d="m194.5 44.126h-81.597c-25.936 16.636-48.517 38.036-66.539 62.951h147.42c.433-1.148.716-1.779.716-1.779-33.154-33.152-.007-61.166 0-61.172z" fill="#1886ea"/><path d="m397.532 444.006c29.312 0 53.295-23.983 53.295-53.295v-232.117c0-29.312-23.983-53.295-53.295-53.295h-349.87c-29.951 40.637-47.662 90.848-47.662 145.202 0 78.681 37.099 148.684 94.749 193.505h181.431c10.72 0 20.687 5.149 27.236 13.637 23.3 30.201 57.535 48.744 94.066 48.857 14.374.045 20.75-20.424 9.415-30.407-6.075-5.352-11.548-11.24-16.429-17.555-4.582-5.927-.429-14.532 7.064-14.532z" fill="#e9efff"/><path d="m0 250.501c0 78.681 37.099 148.684 94.749 193.505h145.251c-40-24.775-15.277-66.077-15.277-66.077l.69-200.87c-54.587-19.056-30.913-71.76-30.913-71.76h-146.838c-29.951 40.637-47.662 90.848-47.662 145.202z" fill="#bec8f7"/><path d="m343.615 199.017c-7.135 2.516-14.279 3.651-20.751 4.018-1.359.077-2.042-1.583-1.038-2.502 9.287-8.507 14.67-18.249 17.011-23.184.459-.967-.616-1.924-1.538-1.379-10.242 6.058-21.164 8.77-29.709 9.958-2.147.298-4.292-.444-5.816-1.984-10.796-10.908-25.754-17.639-42.243-17.639h-.001c-31.401 0-57.413 24.412-59.365 55.752-.219 3.512-.495 6.934-.823 10.273-.323 3.285-3.284 5.618-6.566 5.264-50.379-5.429-82.82-39.018-95.712-55.182-2.508-3.145-7.561-1.607-7.927 2.399-1.564 17.136-.822 50.391 23.747 72.363.734.656-.004 1.837-.92 1.475-7.363-2.913-13.478-6.025-18.029-8.606-3.51-1.991-7.674 1.32-6.507 5.183 4.492 14.867 15.869 40.751 42.225 50.884.928.357.658 1.729-.336 1.707-7.366-.16-13.776-.983-18.696-1.872-3.971-.717-6.795 3.787-4.396 7.031 7.367 9.964 21.355 24.509 41.509 27.006.777.096 1.045 1.106.423 1.582-17.681 13.513-36.729 19.222-51.835 21.492-6.747 1.013-7.645 10.372-1.209 12.638 34.92 12.295 97.994 25.153 157.067-11.262 49.059-30.242 69.03-80.518 66.947-137.548-.092-2.53 1.272-4.864 3.459-6.138 11.358-6.617 18.903-15.546 22.268-20.077.64-.86-.228-2.009-1.239-1.652z" fill="#4fabf7"/><path d="m301.773 183.945c-10.796-10.908-25.754-17.639-42.243-17.639h-.001c-31.401 0-57.413 24.412-59.365 55.752-.219 3.512-.495 6.934-.823 10.273-.323 3.285-3.283 5.618-6.566 5.264-50.378-5.429-82.82-39.018-95.712-55.182-2.508-3.145-7.561-1.607-7.927 2.399-1.564 17.136-.822 50.391 23.747 72.363.734.656-.004 1.837-.92 1.475-7.363-2.913-13.478-6.025-18.029-8.606-3.51-1.991-7.674 1.32-6.507 5.183 4.492 14.867 15.869 40.751 42.225 50.884.928.357.658 1.729-.336 1.707-7.366-.16-13.776-.983-18.696-1.872-3.971-.717-6.795 3.787-4.396 7.031 7.367 9.964 21.355 24.509 41.509 27.006.777.096 1.045 1.106.423 1.582-17.681 13.513-36.728 19.222-51.835 21.492-6.747 1.013-7.645 10.372-1.209 12.638 29.542 10.401 79.236 21.203 129.61 2.234-9.254-4.138-15.018-10.031-18.546-16.276-7.155-12.665-5.669-28.462 3.155-40.027 9.593-12.573 25.83-39.309 31.334-81.512 8.002-61.332 61.108-56.169 61.108-56.169z" fill="#1886ea"/></g></svg>